<svg height="480pt" viewBox="0 0 480 480" width="480pt" xmlns="http://www.w3.org/2000/svg"><path d="m160 196-38.753906 124h-48l-39.015625-124.871094zm0 0" fill="#0a558b"/><path d="m34.28125 195.296875 38.964844 124.703125h24l38.753906-124zm0 0" fill="#0071bc"/><path d="m192 112c0-61.855469-42.980469-112-96-112s-96 50.144531-96 112 42.980469 112 96 112 96-50.144531 96-112zm0 0" fill="#999"/><path d="m168 112c0-61.320312-37.609375-111.03125-84-111.03125s-84 49.710938-84 111.03125 37.609375 111.03125 84 111.03125 84-49.710938 84-111.03125zm0 0" fill="#ccc"/><path d="m80 320h32v96h-32zm0 0" fill="#338dc9"/><path d="m80 320h16v96h-16zm0 0" fill="#6eaad6"/><path d="m80 416h32v64h-32zm0 0" fill="#0a558b"/><path d="m80 416h16v64h-16zm0 0" fill="#0071bc"/><path d="m288 152 80 56-16-56 64 16-24-40 48-24-48-24 24-48-64 24 16-56-80 56zm0 0" fill="#b96f18"/><path d="m336 152 17.230469 4.304688-1.230469-4.304688 45.175781 11.296875-21.175781-35.296875 48-24-48-24 20.304688-40.617188-44.304688 16.617188 1.921875-6.71875-17.921875 6.71875 12-42-60 42v96l60 42zm0 0" fill="#f7931e"/><path d="m288 280c0 26.507812-21.492188 48-48 48s-48-21.492188-48-48 21.492188-48 48-48 48 21.492188 48 48zm0 0" fill="#3e8a36"/><path d="m272 280c0-26.113281-17.910156-47.28125-40-47.28125s-40 21.167969-40 47.28125 17.910156 47.28125 40 47.28125 40-21.167969 40-47.28125zm0 0" fill="#41c241"/><path d="m336 304c0 26.507812-21.492188 48-48 48s-48-21.492188-48-48 21.492188-48 48-48 48 21.492188 48 48zm0 0" fill="#3e8a36"/><path d="m320 304c0-26.113281-17.910156-47.28125-40-47.28125s-40 21.167969-40 47.28125 17.910156 47.28125 40 47.28125 40-21.167969 40-47.28125zm0 0" fill="#41c241"/><path d="m336 304h16v152c0 13.257812-10.742188 24-24 24h-128c-13.257812 0-24-10.742188-24-24v-152z" fill="#4d4d4d"/><path d="m328 456v-152h-152v152c0 13.257812 10.742188 24 24 24h104c13.257812 0 24-10.742188 24-24zm0 0" fill="#666"/><path d="m336 104c0 26.507812-21.492188 48-48 48s-48-21.492188-48-48 21.492188-48 48-48 48 21.492188 48 48zm0 0" fill="#3e8a36"/><path d="m320 104c0-26.113281-17.910156-47.28125-40-47.28125s-40 21.167969-40 47.28125 17.910156 47.28125 40 47.28125 40-21.167969 40-47.28125zm0 0" fill="#41c241"/><path d="m480 432c0 26.507812-21.492188 48-48 48s-48-21.492188-48-48 21.492188-48 48-48 48 21.492188 48 48zm0 0" fill="#3e8a36"/><path d="m464 432c0-26.113281-17.910156-47.28125-40-47.28125s-40 21.167969-40 47.28125 17.910156 47.28125 40 47.28125 40-21.167969 40-47.28125zm0 0" fill="#41c241"/><path d="m408 432c0 26.507812-21.492188 48-48 48s-48-21.492188-48-48 21.492188-48 48-48 48 21.492188 48 48zm0 0" fill="#3e8a36"/><path d="m392 432c0-26.113281-17.910156-47.28125-40-47.28125s-40 21.167969-40 47.28125 17.910156 47.28125 40 47.28125 40-21.167969 40-47.28125zm0 0" fill="#41c241"/><g fill="#666"><path d="m88 223.527344c2.648438.257812 5.296875.472656 8 .472656s5.351562-.214844 8-.472656v-223.054688c-2.648438-.257812-5.296875-.472656-8-.472656s-5.351562.214844-8 .472656zm0 0"/><path d="m120 220.328125c5.542969-1.671875 10.886719-3.871094 16-6.609375v-203.4375c-5.113281-2.738281-10.457031-4.945312-16-6.609375zm0 0"/><path d="m152 21.160156v181.6875c5.871094-4.9375 11.230469-10.617187 16-16.9375v-147.820312c-4.769531-6.320313-10.128906-12-16-16.929688zm0 0"/><path d="m56 213.71875c5.113281 2.738281 10.457031 4.945312 16 6.609375v-216.65625c-5.542969 1.671875-10.886719 3.871094-16 6.609375zm0 0"/><path d="m24 185.910156c4.769531 6.320313 10.128906 12 16 16.9375v-181.6875c-5.871094 4.929688-11.230469 10.609375-16 16.929688zm0 0"/></g></svg>