<svg id="Layer_1" height="512" viewBox="0 0 512 512" width="512" xmlns="http://www.w3.org/2000/svg" data-name="Layer 1"><path d="m189.26 391a54.994 54.994 0 0 0 55 55h179.95a55 55 0 0 0 55-55z" fill="#604af3"/><path d="m334.23 100.15a119.867 119.867 0 1 1 -119.85 119.86 119.856 119.856 0 0 1 119.85-119.86z" fill="#867af4"/><path d="m33 305v121a19.816 19.816 0 0 0 19.79 20h84a20.181 20.181 0 0 0 20.21-20v-121z" fill="#d4e1f4"/><path d="m334.23 134.7a85.305 85.305 0 1 1 -85.3 85.31 85.3 85.3 0 0 1 85.3-85.31z" fill="#55d8d8"/><path d="m45 185h100v120h-100z" fill="#ccd3df"/><path d="m130.79 106v79h-72v-119z" fill="#e75163"/><path d="m208 362h253v29h-253z" fill="#b0b5ca"/><path d="m390.49 361.65v.35h-112.51v-35.96l.08-.14a119.966 119.966 0 0 0 112.35-.01l.08.15z" fill="#604af3"/><path d="m334.23 305.31a85.813 85.813 0 0 0 15-1.341 85.291 85.291 0 0 1 0-167.927 85.3 85.3 0 1 0 -15 169.268z" fill="#83eae7"/><path d="m45 185h30v120h-30z" fill="#b0b5ca"/><path d="m219.26 391h-30a54.994 54.994 0 0 0 55 55h30a54.994 54.994 0 0 1 -55-55z" fill="#867af4"/><path d="m208 362h30v29h-30z" fill="#ccd3df"/><path d="m63 426v-121h-30v121a19.816 19.816 0 0 0 19.79 20h30a19.816 19.816 0 0 1 -19.79-20z" fill="#c0cfe2"/><path d="m58.79 66v119h30v-102.333z" fill="#fc92a4"/><g fill="#284268"><path d="m425.54 220.01a91.328 91.328 0 0 0 -137.375-78.852 6 6 0 1 0 6.062 10.355 79.406 79.406 0 1 1 -16.867 13.223 6 6 0 1 0 -8.606-8.363 91.305 91.305 0 1 0 156.786 63.637z"/><path d="m479.21 385h-12.21v-23a6.237 6.237 0 0 0 -6.27-6h-64.73v-26.618c40-22.382 63.845-63.948 63.845-109.372 0-69.4-56.338-125.86-125.738-125.86s-125.778 56.46-125.778 125.86a126.389 126.389 0 0 0 63.671 109.381v26.609h-64.27a5.776 5.776 0 0 0 -5.73 6v23h-12.74a6 6 0 0 0 -6 6 61.068 61.068 0 0 0 61 61h179.95a61 61 0 0 0 61-61 6 6 0 0 0 -6-6zm-258.83-164.791c0-62.783 51.073-113.959 113.85-113.959a113.911 113.911 0 0 1 0 227.821c-18.6 0-37.048-5.071-53.352-13.071a114.209 114.209 0 0 1 -60.498-100.791zm163.62 115.18v20.611h-100v-20.6a125.908 125.908 0 0 0 50 10.464c17.3-.004 35-3.613 50-10.475zm74.857 90.258a48.675 48.675 0 0 1 -34.647 14.353h-179.95a49.076 49.076 0 0 1 -48.635-43h200.354a6 6 0 1 0 0-12h-181.979v-17h241v17h-28.667a6 6 0 0 0 0 12h46.516a48.573 48.573 0 0 1 -13.992 28.647z"/><path d="m156.79 299h-5.79v-114a6.183 6.183 0 0 0 -6.21-6h-7.79v-73a6.1 6.1 0 0 0 -3.191-5.245l-72.052-40a5.859 5.859 0 0 0 -5.879.074 5.927 5.927 0 0 0 -2.878 5.171v38a6 6 0 0 0 12 0v-27.8l60 33.333v69.467h-60v-44.3a6 6 0 0 0 -12 0v44.3h-8.21a5.825 5.825 0 0 0 -5.79 6v114h-6.21a5.825 5.825 0 0 0 -5.79 6v121a25.851 25.851 0 0 0 25.79 26h84a26.21 26.21 0 0 0 26.21-26v-121a6.183 6.183 0 0 0 -6.21-6zm-105.79-108h88v108h-88zm100 235a14.2 14.2 0 0 1 -14.21 14h-84a13.837 13.837 0 0 1 -13.79-14v-115h112z"/><path d="m117 212a6 6 0 0 0 -6 6v57a6 6 0 0 0 12 0v-57a6 6 0 0 0 -6-6z"/><path d="m128 422a6 6 0 0 0 6-6v-79a6 6 0 0 0 -12 0v79a6 6 0 0 0 6 6z"/></g></svg>