<svg height="512" viewBox="0 0 58 58" width="512" xmlns="http://www.w3.org/2000/svg"><g id="Page-1" fill="none" fill-rule="evenodd"><g id="040---Multi-User-Devices" fill-rule="nonzero"><path id="Shape" d="m44 16v-13c0-1.65685425-1.3431458-3-3-3h-38c-1.65685425 0-3 1.34314575-3 3v52c0 1.6568542 1.34314575 3 3 3h38z" fill="#35495e"/><path id="Shape" d="m40 7v9l-6 32h-29c-.55228475 0-1-.4477153-1-1v-40c0-.55228475.44771525-1 1-1h34c.5522847 0 1 .44771525 1 1z" fill="#f3d55b"/><path id="Shape" d="m40 10.67v5.33l-6 32h-29c-.55228475 0-1-.4477153-1-1v-11.19c4.51-7.54 14.85-19.93 36-25.14z" fill="#f0c419"/><rect id="Rectangle-path" fill="#67b9cc" height="42" rx="4" width="24" x="34" y="16"/><path id="Shape" d="m58 24.67v29.33c0 2.209139-1.790861 4-4 4h-16c-2.209139 0-4-1.790861-4-4v-13c4.28-7.93 11.75-16.46 24-16.33z" fill="#2fa8cc"/><path id="Shape" d="m23 4h-2c-.5522847 0-1-.44771525-1-1s.4477153-1 1-1h2c.5522847 0 1 .44771525 1 1s-.4477153 1-1 1z" fill="#2c3e50"/><circle id="Oval" cx="22" cy="53" fill="#2c3e50" r="2"/><path id="Shape" d="m8 14c-.26580298.0015368-.52128117-.1028135-.71-.29-.18931265-.1877666-.29579832-.4433625-.29579832-.71s.10648567-.5222334.29579832-.71l3-3c.3921222-.39212216 1.0278778-.39212216 1.42.00000001s.3921222 1.02787779 0 1.41999999l-3 3c-.18871883.1871865-.44419702.2915368-.71.29z" fill="#f5efca"/><path id="Shape" d="m8 19c-.26580298.0015368-.52128117-.1028135-.71-.29-.18931265-.1877666-.29579832-.4433625-.29579832-.71s.10648567-.5222334.29579832-.71l8-8c.3921222-.39212217 1.0278778-.39212217 1.42 0s.3921222 1.0278778 0 1.42l-8 8c-.18871883.1871865-.44419702.2915368-.71.29z" fill="#f5efca"/><circle id="Oval" cx="22" cy="24" fill="#3d324c" r="8"/><rect id="Rectangle-path" fill="#ff5364" height="4" rx="1" width="12" x="16" y="37"/><path id="Shape" d="m27.81 29.5c-1.5109323 1.5962549-3.6120587 2.5005546-5.81 2.5005546s-4.2990677-.9042997-5.81-2.5005546c.5168823-1.9613247 1.9807189-3.5340107 3.9-4.19 1.1087973.9154435 2.7112027.9154435 3.82 0 1.9192811.6559893 3.3831177 2.2286753 3.9 4.19z" fill="#955ba5"/><path id="Shape" d="m25 23c0 1.6568542-1.3431458 3-3 3s-3-1.3431458-3-3 1.3431458-3 3-3 3 1.3431458 3 3z" fill="#fdd7ad"/><circle id="Oval" cx="46" cy="32" fill="#3d324c" r="8"/><rect id="Rectangle-path" fill="#f0c419" height="4" rx="1" width="12" x="40" y="45"/><path id="Shape" d="m51.81 37.5c-1.5109323 1.5962549-3.6120587 2.5005546-5.81 2.5005546s-4.2990677-.9042997-5.81-2.5005546c.5168823-1.9613247 1.9807189-3.5340107 3.9-4.19 1.1087973.9154435 2.7112027.9154435 3.82 0 1.9192811.6559893 3.3831177 2.2286753 3.9 4.19z" fill="#955ba5"/><path id="Shape" d="m49 31c-.0000001 1.6568542-1.3431458 2.9999999-3 2.9999999s-2.9999999-1.3431457-3-2.9999999c0-1.6568542 1.3431458-3 3-3s3 1.3431458 3 3z" fill="#fdd7ad"/><g fill="#285680"><path id="Shape" d="m58 50v4c0 2.209139-1.790861 4-4 4h-16c-2.209139 0-4-1.790861-4-4v-4c0 2.209139 1.790861 4 4 4h16c2.209139 0 4-1.790861 4-4z"/><path id="Shape" d="m53 16-2.4 3.2c-.3777088.5036117-.9704854.8-1.6.8h-6c-.6295146 0-1.2222912-.2963883-1.6-.8l-2.4-3.2z"/></g></g></g></svg>