<?xml version="1.0" encoding="iso-8859-1"?>
<!-- Generator: Adobe Illustrator 19.0.0, SVG Export Plug-In . SVG Version: 6.00 Build 0)  -->
<svg version="1.1" id="Capa_1" xmlns="http://www.w3.org/2000/svg" xmlns:xlink="http://www.w3.org/1999/xlink" x="0px" y="0px"
	 viewBox="0 0 512 512" style="enable-background:new 0 0 512 512;" xml:space="preserve">
<path style="fill:#F36D60;" d="M388.487,465.082c0.185,3.609-1.604,7.034-4.643,8.967C345.772,498.271,302.398,512,256.36,512
	c-46.35,0-89.998-13.916-128.255-38.446c-3.015-1.933-4.778-5.35-4.592-8.939c4.715-91.001,22.986-180.869,54.29-266.58l0.541-1.48
	c1.438-3.937,5.168-6.554,9.341-6.554h13.949c-5.496,0-9.95-4.477-9.95-10v-10c0-4.44,2.882-8.199,6.867-9.505
	c-6.194-3.033-10.55-9.162-11.129-16.355l0,0c-1.293-16.075-3.666-32.044-7.101-47.797l-2.593-11.892
	c-0.645-2.958-0.951-5.98-0.914-9.007l0.816-65.569C177.698,4.401,182.132,0,187.579,0h15.496c4.899,0,9.069,3.584,9.83,8.448
	l4.373,27.964C220.301,55.751,236.882,70,256.36,70c19.479,0,36.059-14.249,39.083-33.588l4.373-27.964
	c0.76-4.864,4.931-8.448,9.83-8.448h15.496c5.447,0,9.881,4.401,9.949,9.875l0.816,65.569c0.038,3.027-0.269,6.049-0.914,9.007
	L332.4,96.343c-3.435,15.754-5.807,31.722-7.101,47.797l0,0c-0.579,7.193-4.935,13.322-11.128,16.355
	c3.985,1.305,6.867,5.064,6.867,9.505v10c0,5.523-4.455,10-9.95,10h13.202c4.173,0,7.903,2.617,9.341,6.554l0.541,1.48
	C365.529,283.893,383.81,373.921,388.487,465.082z"/>
<path style="fill:#DB6660;" d="M364.016,485.449C330.973,502.527,294.587,512,256.36,512c-46.35,0-89.998-13.916-128.255-38.446
	c-3.015-1.933-4.778-5.35-4.592-8.939c4.715-91.001,22.986-180.869,54.29-266.58l0.541-1.48c1.438-3.937,5.168-6.554,9.341-6.554
	h13.949c-4.929,0-9.01-3.606-9.801-8.333h24.37c-2.815,18.4-4.315,37.593-4.315,57.333
	C211.887,371.886,279.43,480.21,364.016,485.449z M180.321,96.343c3.435,15.754,5.807,31.722,7.101,47.797l0,0
	c0.579,7.193,4.935,13.322,11.129,16.355c-3.985,1.305-6.867,5.064-6.867,9.505v4.333h88.487
	c-39.338-29.558-66.293-89.955-66.293-159.667l0,0l-0.972-6.219C212.144,3.584,207.974,0,203.075,0h-15.496
	c-5.447,0-9.881,4.401-9.949,9.875l-0.816,65.569c-0.038,3.027,0.269,6.049,0.914,9.007L180.321,96.343z"/>
<path style="fill:#CE5B4D;" d="M234.595,180c0,3.962-3.058,7.208-6.931,7.481c-0.536,0.49-1.826,2.197-2.561,5.815l-0.54,2.664
	c-10.933,53.88-20.393,109.42-28.121,165.077c-0.521,3.75-3.718,6.464-7.381,6.464c-0.344,0-0.691-0.024-1.041-0.073
	c-4.082-0.573-6.929-4.362-6.36-8.465c7.77-55.965,17.284-111.815,28.279-166l0.54-2.664c2.194-10.813,8.731-17.8,16.653-17.8
	C231.254,172.5,234.595,175.858,234.595,180z M331.061,358.963c-7.773-55.98-17.288-111.831-28.279-166.001l-0.541-2.663
	c-2.194-10.813-8.731-17.799-16.653-17.799c-4.122,0-7.463,3.358-7.463,7.5c0,3.962,3.058,7.208,6.931,7.481
	c0.535,0.49,1.826,2.198,2.561,5.816l0.541,2.663c10.93,53.864,20.39,109.404,28.121,165.076c0.521,3.751,3.718,6.464,7.381,6.464
	c0.344,0,0.691-0.024,1.041-0.073C328.783,366.855,331.631,363.066,331.061,358.963z M256.361,172.5c-4.122,0-7.463,3.358-7.463,7.5
	v144c0,4.142,3.341,7.5,7.463,7.5c4.122,0,7.463-3.358,7.463-7.5V180C263.823,175.858,260.482,172.5,256.361,172.5z"/>
<path style="fill:#A75243;" d="M320.677,170v10c0,5.523-4.477,10-10,10H201.323c-5.523,0-10-4.477-10-10v-10c0-5.523,4.477-10,10-10
	h109.354C316.2,160,320.677,164.477,320.677,170z"/>
<g>
</g>
<g>
</g>
<g>
</g>
<g>
</g>
<g>
</g>
<g>
</g>
<g>
</g>
<g>
</g>
<g>
</g>
<g>
</g>
<g>
</g>
<g>
</g>
<g>
</g>
<g>
</g>
<g>
</g>
</svg>
