<svg id="Capa_1" enable-background="new 0 0 443.955 443.955" height="512" viewBox="0 0 443.955 443.955" width="512" xmlns="http://www.w3.org/2000/svg"><g><g id="icon_33_"><g fill="#dbd8dd"><path d="m69.593 443.04c-35.381 0-64.179-31.396-64.179-70.009 0-34.304 48.646-152.379 50.719-157.815l6.6 3.454c-17.325 45.478-50.091 128.346-50.091 154.36 0 33.919 25.544 61.515 56.94 61.515s56.94-27.612 56.94-61.515c0-26.399-32.766-109.5-50.091-155.048l6.6-3.449c2.074 5.447 50.719 123.723 50.719 158.497.01 38.613-28.776 70.01-64.157 70.01z"/><path d="m69.593 443.04c-10.942 0-21.115-7.526-28.646-21.196-7.682-15.104-11.519-31.871-11.169-48.813 0-36.464 34.91-174.415 36.393-180.695l3.487-14.732 3.476 14.732c1.483 6.28 36.307 144.226 36.307 180.69.341 16.936-3.501 33.695-11.185 48.792-7.548 13.691-17.722 21.222-28.663 21.222zm.037-233.412c-9.058 39.42-32.647 134.746-32.647 163.402-.336 15.332 3.11 30.511 10.032 44.195 6.15 11.169 14.169 17.325 22.577 17.325s16.421-6.15 22.577-17.325c6.923-13.684 10.368-28.863 10.032-44.195.001-28.662-23.529-123.982-32.571-163.402z"/><path d="m69.593 443.04c-5.17 0-8.803-7.201-11.424-22.669-2.368-15.659-3.483-31.482-3.335-47.319 0-36.074 10.714-173.657 11.169-179.921h7.201c.455 6.264 11.148 143.847 11.148 179.921.148 15.837-.967 31.66-3.335 47.319-2.621 15.463-6.249 22.669-11.424 22.669zm0-197.641c-3.248 48.007-7.542 105.401-7.542 127.659-.103 14.344.816 28.677 2.75 42.89.538 6.265 2.155 12.391 4.781 18.105 2.625-5.714 4.243-11.839 4.781-18.105 1.934-14.213 2.853-28.546 2.75-42.89.011-22.257-4.261-79.652-7.509-127.659z"/></g><path d="m88.591 70.145v146.37c0 2.99-2.424 5.414-5.414 5.414h-26.87c-2.99 0-5.414-2.424-5.414-5.414v-146.37c0-10.403 8.433-18.836 18.836-18.836 10.403-.015 18.848 8.406 18.863 18.809-.001.009-.001.018-.001.027z" fill="#575b6d"/><path d="m50.914 136.619h37.677v25.246h-37.677z" fill="#414451"/><path d="m371.352 189.888h16.713v207.446h-16.713z" fill="#eeefee"/><path d="m400.512 77.86v117.047c0 5.529-4.482 10.011-10.011 10.011h-21.581c-5.529 0-10.011-4.482-10.011-10.011v-117.047z" fill="#575b6d"/><path d="m443.955 364.254c0 34.685-28.117 62.804-62.803 62.804-16.663 0-32.644-6.622-44.423-18.409-1.753-1.721-3.382-3.564-4.873-5.517-8.786-11.058-13.558-24.771-13.535-38.895 0-1.145.928-2.074 2.074-2.074h121.481c1.145-.003 2.076.923 2.079 2.068z" fill="#bbbbcd"/><path d="m433.029 362.202c-4.574 34.358-36.135 58.503-70.493 53.929-11.2-1.491-21.791-5.978-30.653-12.988-8.786-11.058-13.558-24.771-13.535-38.895 0-1.145.928-2.074 2.074-2.074z" fill="#dbd8dd"/><path d="m216.709 189.888h16.713v144.859h-16.713z" fill="#dbd8dd"/><path d="m246.178 77.86v117.047c0 5.529-4.482 10.011-10.011 10.011h-21.575c-5.529.003-10.013-4.477-10.016-10.005 0-.002 0-.004 0-.005v-117.048z" fill="#575b6d"/><path d="m234.776 301.922h-18.819c-20.901 0-37.844 16.944-37.844 37.844v87.903c0 2.766 2.242 5.008 5.008 5.008h84.498c2.766 0 5.008-2.242 5.008-5.008v-87.903c0-20.901-16.944-37.844-37.844-37.844-.003 0-.005 0-.007 0zm-27.682 101.968c0 3.981-3.228 7.209-7.209 7.209s-7.209-3.227-7.209-7.209v-56.306c0-3.981 3.228-7.209 7.209-7.209s7.209 3.228 7.209 7.209zm25.479 0c0 3.981-3.227 7.209-7.209 7.209-3.981 0-7.209-3.227-7.209-7.209v-56.306c0-3.981 3.228-7.209 7.209-7.209s7.209 3.228 7.209 7.209zm25.478 0c.003 3.968-3.211 7.187-7.179 7.19s-7.187-3.211-7.19-7.179c0-.004 0-.007 0-.011v-56.306c-.003-3.968 3.211-7.187 7.179-7.19s7.187 3.211 7.19 7.179v.011z" fill="#eeefee"/><path d="m10.011.915h419.348c5.529 0 10.011 4.482 10.011 10.011v62.576c0 5.529-4.482 10.011-10.011 10.011h-419.348c-5.529-.001-10.011-4.483-10.011-10.011v-62.576c0-5.529 4.482-10.011 10.011-10.011z" fill="#f6b863"/><circle cx="379.689" cy="42.214" fill="#eaa14e" r="14.369"/><circle cx="225.063" cy="42.214" fill="#eaa14e" r="14.369"/><circle cx="70.437" cy="42.214" fill="#eaa14e" r="14.369"/></g></g></svg>