<svg height="512" viewBox="0 0 64 64" width="512" xmlns="http://www.w3.org/2000/svg"><g id="Smart_TV" data-name="Smart TV"><rect fill="#46f8ff" height="32" rx="2" width="58" x="3" y="3"/><path d="m61 5v28a2.006 2.006 0 0 1 -2 2h-4a2.006 2.006 0 0 0 2-2v-28a2.006 2.006 0 0 0 -2-2h4a2.006 2.006 0 0 1 2 2z" fill="#00d7df"/><rect fill="#a78966" height="32" rx="2" width="16" x="39" y="29"/><path d="m55 31v28a2.006 2.006 0 0 1 -2 2h-4a2.006 2.006 0 0 0 2-2v-28a2.006 2.006 0 0 0 -2-2h4a2.006 2.006 0 0 1 2 2z" fill="#806749"/><circle cx="47" cy="53" fill="#ff3051" r="4"/><path d="m51 53a3.994 3.994 0 0 1 -6 3.46 3.993 3.993 0 0 0 0-6.92 3.994 3.994 0 0 1 6 3.46z" fill="#cd2a00"/><circle cx="47" cy="23" fill="#ff3051" r="2"/><path d="m49 23a2 2 0 0 1 -3 1.73 2 2 0 0 0 0-3.46 2 2 0 0 1 3 1.73z" fill="#cd2a00"/><path d="m39 41v4h-8v-4h4z" fill="#ff7956"/><path d="m36 41h3v4h-3z" fill="#ff6243"/><path d="m35 35h4v6h-4z" fill="#fff"/><path d="m35 35v6h-4a2.006 2.006 0 0 0 -2-2v-4z" fill="#fee9ab"/><path d="m32 35h3v6h-3z" fill="#ffde55"/><rect fill="#c6c5ca" height="22" rx="2" width="26" x="5" y="39"/><path d="m31 41v18a2.006 2.006 0 0 1 -2 2h-4a2.006 2.006 0 0 0 2-2v-18a2.006 2.006 0 0 0 -2-2h4a2.006 2.006 0 0 1 2 2z" fill="#898890"/><path d="m9 47h18v6h-18z" fill="#57a4ff"/><path d="m23 47h4v6h-4z" fill="#006df0"/><path d="m59 2h-54a3 3 0 0 0 -3 3v28a3 3 0 0 0 3 3h23v2h-21a3 3 0 0 0 -3 3v18a3 3 0 0 0 3 3h22a3 3 0 0 0 3-3v-13h6v13a3 3 0 0 0 3 3h12a3 3 0 0 0 3-3v-23h3a3 3 0 0 0 3-3v-28a3 3 0 0 0 -3-3zm-25 34v4h-2.184a3 3 0 0 0 -1.816-1.816v-2.184zm4 0v4h-2v-4zm-8 23a1 1 0 0 1 -1 1h-22a1 1 0 0 1 -1-1v-18a1 1 0 0 1 1-1h22a1 1 0 0 1 1 1zm2-15v-2h6v2zm22 15a1 1 0 0 1 -1 1h-12a1 1 0 0 1 -1-1v-28a1 1 0 0 1 1-1h12a1 1 0 0 1 1 1zm6-26a1 1 0 0 1 -1 1h-3v-3a3 3 0 0 0 -3-3h-12a3 3 0 0 0 -3 3v3h-33a1 1 0 0 1 -1-1v-28a1 1 0 0 1 1-1h54a1 1 0 0 1 1 1z"/><path d="m6 7v4h2v-3h3v-2h-4a1 1 0 0 0 -1 1z"/><path d="m13 6h2v2h-2z"/><path d="m36.4 12.392 1.411 1.417a13 13 0 0 1 18.388 0l1.411-1.417a15 15 0 0 0 -21.21 0z"/><path d="m39.223 15.223 1.414 1.414a9 9 0 0 1 12.726 0l1.414-1.414a10.994 10.994 0 0 0 -15.554 0z"/><path d="m42.049 18.056 1.421 1.408a4.988 4.988 0 0 1 7.06 0l1.421-1.408a6.989 6.989 0 0 0 -9.9 0z"/><path d="m47 20a3 3 0 1 0 3 3 3 3 0 0 0 -3-3zm0 4a1 1 0 1 1 1-1 1 1 0 0 1 -1 1z"/><path d="m47 48a5 5 0 1 0 5 5 5.006 5.006 0 0 0 -5-5zm0 8a3 3 0 1 1 3-3 3 3 0 0 1 -3 3z"/><path d="m42 36h2v2h-2z"/><path d="m46 36h2v2h-2z"/><path d="m50 36h2v2h-2z"/><path d="m42 32h2v2h-2z"/><path d="m46 32h2v2h-2z"/><path d="m50 32h2v2h-2z"/><path d="m42 40h2v2h-2z"/><path d="m46 40h2v2h-2z"/><path d="m50 40h2v2h-2z"/><path d="m42 44h2v2h-2z"/><path d="m46 44h2v2h-2z"/><path d="m50 44h2v2h-2z"/><path d="m27 46h-18a1 1 0 0 0 -1 1v6a1 1 0 0 0 1 1h18a1 1 0 0 0 1-1v-6a1 1 0 0 0 -1-1zm-1 6h-16v-4h16z"/><path d="m8 42h4v2h-4z"/><path d="m16 42h4v2h-4z"/><path d="m24 42h4v2h-4z"/><path d="m9 56h2v2h-2z"/><path d="m13 56h2v2h-2z"/><path d="m17 56h2v2h-2z"/><path d="m21 56h2v2h-2z"/><path d="m25 56h2v2h-2z"/></g></svg>