<?xml version="1.0" encoding="iso-8859-1"?>
<!-- Generator: Adobe Illustrator 19.0.0, SVG Export Plug-In . SVG Version: 6.00 Build 0)  -->
<svg version="1.1" id="Capa_1" xmlns="http://www.w3.org/2000/svg" xmlns:xlink="http://www.w3.org/1999/xlink" x="0px" y="0px"
	 viewBox="0 0 512 512" style="enable-background:new 0 0 512 512;" xml:space="preserve">
<path style="fill:#414666;" d="M422,70H90c-44.18,0-80,41.82-80,86v266c0,44.18,35.82,80,80,80h332c44.18,0,80-35.82,80-80V150
	C502,105.82,466.18,70,422,70z"/>
<polygon style="fill:#FFFFFF;" points="436.105,210 396.105,70 376.105,70 376,70 356,10 156,10 136,70 114.415,70 76.105,210 
	116.105,210 96.105,270 229.105,465 229.725,465.23 216.105,502 256.105,502 416.105,270 396.105,210 "/>
<polygon style="fill:#707B99;" points="136,70 114.415,70 76.105,210 116.105,210 96.105,270 229.105,465 229.725,465.23 
	216.105,502 256.105,502 416.105,270 396.105,210 436.105,210 396.105,70 376.105,70 376,70 254,399 "/>
<polygon style="fill:#77C1E6;" points="292,294 276,170 276,120 256,90 236,120 236,170 220,302 219.3,302.25 254,399 
	254.13,399.05 292.91,294.34 "/>
<path d="M356,432c-5.52,0-10,4.48-10,10s4.48,10,10,10s10-4.48,10-10S361.52,432,356,432z"/>
<path d="M90,512c3.87,0,329.493,0,332,0c49.626,0,90-40.374,90-90V150c0-49.626-40.374-90-90-90c-8.177,0-30.085,0-38.792,0
	L365.552,7.031c-0.001-0.005-0.003-0.009-0.005-0.014C363.302,2.616,361.237,0,356,0H156c-4.286,0-8.138,2.782-9.487,6.838
	l-0.059,0.178c-0.002,0.005-0.003,0.009-0.005,0.014l-17.641,53.022C109.88,59.931,90,60.1,90,60.1c-50.269,0-90,46.762-90,95.9v266
	C0,471.626,40.374,512,90,512z M422,80c38.598,0,70,31.402,70,70v272c0,38.598-31.402,70-70,70H275.044l149.188-216.323
	c1.783-2.586,2.248-5.859,1.255-8.839L409.874,220H436c3.138,0,6.094-1.473,7.983-3.978s2.494-5.752,1.632-8.769L409.257,80H422z
	 M382.96,80h5.497l34.286,120H396c-6.817,0-11.643,6.689-9.487,13.162l18.423,55.268L250.749,492h-20.382L382.96,80z M267.207,180
	l14.828,114.914l-27.811,75.09L230.013,302.5L244.861,180H267.207z M246,160v-36.973l10-15l10,15V160H246z M286,169.356v-16.329
	l1.68,2.52c3.489,5.232,10.915,6,15.392,1.524l47.672-47.672L296.99,254.533L286,169.356z M364.559,67.299l-67.004,67.004
	c-5.969-8.954-22.918-34.377-28.148-42.222l81.642-65.314L364.559,67.299z M327.492,20L256,77.194L184.508,20H327.492z
	 M160.952,26.768l81.642,65.314c-5.217,7.825-21.984,32.976-28.148,42.222L147.442,67.3L160.952,26.768z M226,153.027v16.366
	l-11.045,91.123l-54.48-151.899l48.454,48.454c4.482,4.481,11.908,3.7,15.392-1.524L226,153.027z M121.941,80h7.022L243.43,399.149
	l-16.624,44.886L107.055,268.46l18.433-55.298c1.016-3.049,0.505-6.401-1.375-9.009c-1.88-2.608-4.898-4.153-8.113-4.153H89.104
	L121.941,80z M20,156c0-40.486,32.71-76,70-76h11.206L66.354,207.361c-0.823,3.007-0.195,6.227,1.696,8.706
	C69.942,218.545,72.882,220,76,220h26.126l-15.613,46.838c-0.987,2.962-0.534,6.217,1.226,8.797l130.547,191.403L209.04,492H90
	c-38.598,0-70-31.402-70-70V156z"/>
<path d="M436,432h-40c-5.522,0-10,4.477-10,10s4.478,10,10,10h40c5.522,0,10-4.477,10-10S441.522,432,436,432z"/>
<g>
</g>
<g>
</g>
<g>
</g>
<g>
</g>
<g>
</g>
<g>
</g>
<g>
</g>
<g>
</g>
<g>
</g>
<g>
</g>
<g>
</g>
<g>
</g>
<g>
</g>
<g>
</g>
<g>
</g>
</svg>
